# xmcd CD database file
#
# Track frame offsets:
#	180
#	42304
#	71616
#	95041
#	120446
#	150744
#	156388
#	185104
#	205081
#	237387
#
# Disc length: 3385 seconds
#
# Revision: 0
# Processed by: cddbd v1.5.1PL0 Copyright (c) Steve Scherf et al.
# Submitted via: CDex 1.51
#
DISCID=8c0d370a
DTITLE=Rodney Jones - The "X" Field
DYEAR=1996
DGENRE=Jazz
TTITLE0=Silent Darkness
TTITLE1=Blues for the Monkey Who Escaped
TTITLE2=Little Melonae
TTITLE3=The Call of Soul
TTITLE4=The "X" Field
TTITLE5=Laura's Eyes
TTITLE6=Mobius 3
TTITLE7=Between Then and Now
TTITLE8=Blues Standard
TTITLE9=Uncle Willie's Moonshine Blues
EXTD=YEAR: 1996
EXTT0=
EXTT1=
EXTT2=
EXTT3=
EXTT4=
EXTT5=
EXTT6=
EXTT7=
EXTT8=
EXTT9=
PLAYORDER=
